# Blender v2.90.1 OBJ File: 'rock.blend'
# www.blender.org
mtllib rock.mtl
o Stone_Cube
v -0.617480 -0.431085 0.378691
v -0.450506 -0.464536 0.475681
v 0.077233 -0.463566 -0.579515
v -0.195096 -0.451115 -0.553581
v -0.395789 -0.420083 -0.449632
v 0.418139 0.005705 -0.246229
v 0.534343 -0.179885 -0.246658
v -0.622665 -0.344492 0.437738
v -0.621214 -0.229271 0.350357
v 0.616492 -0.296013 0.484530
v 0.593130 -0.399143 0.461784
v -0.098174 0.193504 -0.555749
v -0.363000 0.033069 -0.350155
v 0.425980 -0.466318 0.488260
v 0.098404 0.236470 -0.416237
v 0.590572 -0.458346 0.071456
v 0.531267 -0.461352 -0.346564
v 0.192718 0.246833 -0.318116
v -0.297430 0.318760 -0.202408
v -0.227499 0.230497 0.093312
v 0.296322 -0.434651 0.635483
v 0.456611 -0.223320 0.604973
v 0.369870 -0.346071 0.655988
v 0.195687 -0.164376 0.709455
v 0.036874 -0.282701 0.762587
v -0.132610 -0.453504 0.657631
v -0.001640 -0.398987 0.737540
v 0.062925 0.091793 0.426444
v -0.194563 -0.394511 0.705435
v -0.154705 -0.302930 0.714683
v -0.137748 0.008309 0.391776
v -0.481204 -0.429507 0.522042
v -0.317805 -0.230549 0.550068
v -0.348849 0.081135 0.169721
v -0.413032 0.128549 0.073013
v -0.683557 -0.387732 0.220754
v -0.703580 -0.285111 0.266756
v -0.648408 -0.104339 0.188267
v -0.675511 -0.070994 -0.038684
v -0.664189 -0.291228 -0.000459
v -0.469168 0.082467 -0.174905
v -0.355347 0.155928 -0.260616
v -0.439775 -0.154117 -0.404168
v 0.442661 -0.469614 -0.275533
v -0.128019 -0.430823 -0.421222
v -0.534734 -0.420340 -0.143127
v -0.368145 -0.442476 -0.341711
v -0.440142 -0.407802 -0.014296
v -0.117008 -0.302002 -0.096467
v -0.244684 -0.327201 0.045768
v -0.055998 -0.292937 0.037706
v 0.457641 -0.451029 0.155592
v -0.601614 -0.451388 0.221634
v -0.450520 -0.458221 0.329283
v -0.046612 -0.449611 0.494755
v 0.255319 -0.457218 0.408382
v 0.543765 -0.340697 -0.335847
v 0.665981 -0.404629 -0.256015
v 0.637937 -0.267517 -0.199443
v 0.679477 -0.359029 -0.162241
v 0.743022 -0.024215 0.051633
v 0.657560 -0.416779 0.252410
v 0.694285 -0.297749 0.294878
v 0.657791 -0.160387 0.368884
v -0.397550 -0.370253 -0.508134
v -0.344466 -0.185728 -0.550322
v -0.221402 -0.082316 -0.622554
v -0.238835 -0.275770 -0.652577
v -0.157878 -0.398284 -0.653423
v 0.021712 -0.248460 -0.787472
v -0.019413 -0.049783 -0.705975
v 0.027854 0.224885 -0.491980
v 0.069817 0.120419 -0.515038
v 0.201103 -0.379513 -0.693053
v 0.217421 -0.288950 -0.621781
v 0.507809 -0.431569 -0.441397
v 0.418685 -0.273368 -0.416389
v 0.268206 0.050547 -0.364711
v -0.297430 0.318760 -0.202408
v 0.060034 0.167790 0.282594
v 0.060034 0.167790 0.282594
v 0.329821 0.162537 0.027829
v 0.562324 0.052350 0.279614
v 0.181035 0.158817 0.199713
v 0.190142 0.155124 0.203413
v 0.405168 0.200488 -0.139716
v 0.397557 0.210700 -0.141617
v 0.400648 0.206596 -0.126430
v 0.461742 0.018642 0.495258
v 0.468304 0.009898 0.499778
v 0.308233 0.009150 0.576678
v 0.301569 0.017787 0.570583
v 0.234946 0.014908 0.623461
v 0.230549 0.006526 0.631629
v 0.236938 0.002564 0.635410
v 0.629451 0.087151 0.155916
v 0.675158 0.111185 0.068407
v 0.670123 0.111861 0.063920
v 0.667879 0.113454 0.062711
v 0.664922 0.117218 0.062135
v 0.323936 0.162356 0.034786
v 0.333674 0.164933 0.019438
v 0.323197 0.162666 0.034084
v 0.597690 0.072682 0.205186
v 0.585160 0.067853 0.220579
v 0.593723 0.064081 0.223302
v 0.550746 0.080987 0.192558
v 0.547593 0.075863 0.213158
v 0.591345 0.056984 0.234346
v 0.580716 0.063721 0.238390
v 0.555331 0.055577 0.283607
v 0.585377 0.059809 0.242635
v 0.207574 0.148985 0.214726
v 0.198105 0.155665 0.195781
v 0.190190 0.155114 0.203421
v 0.197960 0.156250 0.193404
v 0.204398 0.158690 0.176098
v 0.190761 0.158614 0.190594
v 0.395276 0.203255 -0.114732
v 0.411307 0.204676 -0.123322
v 0.400627 0.206584 -0.126386
v 0.411220 0.204689 -0.123338
v 0.416193 0.202154 -0.127967
v 0.257614 0.240878 -0.271033
v 0.293847 0.215554 -0.238834
v 0.279363 0.227887 -0.245386
v 0.279223 0.229203 -0.244717
v -0.041129 0.377799 -0.450798
v -0.044207 0.373216 -0.471381
v -0.052844 0.376313 -0.473951
v -0.057721 0.384048 -0.461718
v -0.048948 0.382815 -0.459275
v 0.135173 0.280170 -0.338943
v 0.103221 0.289676 -0.368489
v 0.228647 0.249507 -0.280776
v 0.248119 0.244386 -0.268891
v 0.125848 0.252086 -0.178547
v 0.070890 0.262536 -0.162349
v 0.405168 0.200488 -0.139716
v 0.397557 0.210700 -0.141617
v 0.397557 0.210700 -0.141617
v 0.400648 0.206596 -0.126430
v 0.664922 0.117218 0.062135
v 0.658454 0.119031 0.073327
v 0.666110 0.116060 0.071734
v 0.450008 0.188860 -0.086814
v 0.416193 0.202154 -0.127967
v 0.429576 0.199958 -0.113604
v -0.250032 0.202212 0.089314
v -0.259123 0.192898 0.099234
v -0.253086 0.191759 0.104494
v -0.242763 0.195346 0.107095
v -0.243796 0.204414 0.099475
v 0.014707 0.229010 0.035552
v 0.024360 0.224633 0.049972
v 0.031264 0.224889 0.041601
v 0.024999 0.227991 0.033997
v 0.022003 0.229038 0.034113
v 0.061218 0.136667 0.341504
v 0.069039 0.159919 0.300143
v 0.066880 0.167282 0.277904
v 0.066078 0.167673 0.276886
v 0.098595 -0.066951 0.632981
v 0.079594 -0.004388 0.548444
v 0.085589 -0.069163 0.627191
v 0.083543 -0.074062 0.631513
v 0.085275 -0.076638 0.635009
v 0.089378 -0.078021 0.637297
v -0.167088 0.156705 0.201176
v -0.140900 0.161382 0.208847
v -0.161043 0.164785 0.196740
v -0.162433 0.163020 0.196923
v -0.406267 0.221198 -0.029595
v -0.401573 0.231357 -0.043364
v -0.404038 0.225336 -0.044673
v -0.408290 0.222074 -0.042391
v -0.410084 0.221935 -0.032941
v -0.217944 0.228413 0.099602
v -0.229337 0.232817 0.085538
v 0.062709 0.097456 0.415724
v 0.041434 0.091236 0.413045
v 0.055344 0.088639 0.425134
v 0.060034 0.167790 0.282594
v 0.062709 0.097456 0.415724
v 0.091596 0.157712 0.281165
v 0.094272 0.087378 0.414295
v 0.065500 0.163592 0.284115
v 0.335287 0.158338 0.029349
v 0.067743 0.085650 0.418271
v 0.060378 0.076833 0.427681
v 0.106288 0.074858 0.422149
v 0.122957 -0.021322 0.544149
v 0.062709 0.097456 0.415724
v 0.094272 0.087378 0.414295
v 0.112873 0.071303 0.421808
v 0.111166 0.116178 0.336868
v 0.065044 0.082698 0.419882
v 0.096607 0.072620 0.418453
v 0.591715 0.065881 0.204349
v 0.210780 0.157825 0.163171
vt 0.563980 0.928176
vt 0.563980 0.928176
vt 0.563980 0.928176
vt 0.563980 0.928176
vt 0.563980 0.928176
vt 0.563980 0.928176
vt 0.563980 0.928176
vt 0.563980 0.928176
vt 0.563980 0.928176
vt 0.563980 0.928176
vt 0.563980 0.928176
vt 0.563980 0.928176
vt 0.563980 0.928176
vt 0.563980 0.928176
vt 0.563980 0.928176
vt 0.563980 0.928176
vt 0.563980 0.928176
vt 0.563980 0.928176
vt 0.563980 0.928176
vt 0.563980 0.928176
vt 0.563980 0.928176
vt 0.563980 0.928176
vt 0.563980 0.928176
vt 0.563980 0.928176
vt 0.563980 0.928176
vt 0.563980 0.928176
vt 0.563980 0.928176
vt 0.563980 0.928176
vt 0.563980 0.928176
vt 0.563980 0.928176
vt 0.563980 0.928176
vt 0.563980 0.928176
vt 0.563980 0.928176
vt 0.563980 0.928176
vt 0.563980 0.928176
vt 0.563980 0.928176
vt 0.563980 0.928176
vt 0.563980 0.928176
vt 0.563980 0.928176
vt 0.563980 0.928176
vt 0.563980 0.928176
vt 0.563980 0.928176
vt 0.563980 0.928176
vt 0.563980 0.928176
vt 0.563980 0.928176
vt 0.563980 0.928176
vt 0.563980 0.928176
vt 0.563980 0.928176
vt 0.563980 0.928176
vt 0.563980 0.928176
vt 0.563980 0.928176
vt 0.563980 0.928176
vt 0.563980 0.928176
vt 0.563980 0.928176
vt 0.563980 0.928176
vt 0.563980 0.928176
vt 0.563980 0.928176
vt 0.563980 0.928176
vt 0.563980 0.928176
vt 0.563980 0.928176
vt 0.563980 0.928176
vt 0.563980 0.928176
vt 0.563980 0.928176
vt 0.563980 0.928176
vt 0.563980 0.928176
vt 0.563980 0.928176
vt 0.563980 0.928176
vt 0.563980 0.928176
vt 0.563980 0.928176
vt 0.563980 0.928176
vt 0.563980 0.928176
vt 0.563980 0.928176
vt 0.563980 0.928176
vt 0.563980 0.928176
vt 0.563980 0.928176
vt 0.563980 0.928176
vt 0.563980 0.928176
vt 0.563980 0.928176
vt 0.563980 0.928176
vt 0.563980 0.928176
vt 0.563980 0.928176
vt 0.563980 0.928176
vt 0.563980 0.928176
vt 0.563980 0.928176
vt 0.563980 0.928176
vt 0.563980 0.928176
vt 0.563980 0.928176
vt 0.563980 0.928176
vt 0.563980 0.928176
vt 0.563980 0.928176
vt 0.563980 0.928176
vt 0.563980 0.928176
vt 0.563980 0.928176
vt 0.563980 0.928176
vt 0.563980 0.928176
vt 0.563980 0.928176
vt 0.563980 0.928176
vt 0.563980 0.928176
vt 0.563980 0.928176
vt 0.563980 0.928176
vt 0.563980 0.928176
vt 0.563980 0.928176
vt 0.563980 0.928176
vt 0.563980 0.928176
vt 0.563980 0.928176
vt 0.563980 0.928176
vt 0.563980 0.928176
vt 0.563980 0.928176
vt 0.563980 0.928176
vt 0.563980 0.928176
vt 0.563980 0.928176
vt 0.563980 0.928176
vt 0.563981 0.928176
vt 0.563980 0.928176
vt 0.563980 0.928176
vt 0.563980 0.928176
vt 0.563980 0.928176
vt 0.563980 0.928176
vt 0.563980 0.928176
vt 0.563980 0.928176
vt 0.563980 0.928176
vt 0.563980 0.928176
vt 0.563980 0.928176
vt 0.563980 0.928176
vt 0.563980 0.928176
vt 0.563980 0.928176
vt 0.563980 0.928176
vt 0.563980 0.928176
vt 0.563980 0.928176
vt 0.563980 0.928176
vt 0.563980 0.928176
vt 0.563980 0.928176
vt 0.563980 0.928176
vt 0.563980 0.928176
vt 0.563980 0.928176
vt 0.563980 0.928176
vt 0.563980 0.928176
vt 0.563980 0.928176
vt 0.563980 0.928176
vt 0.563980 0.928176
vt 0.563980 0.928176
vt 0.563980 0.928176
vt 0.563980 0.928176
vt 0.563980 0.928176
vt 0.563980 0.928176
vt 0.563980 0.928176
vt 0.563980 0.928176
vt 0.563980 0.928176
vt 0.563980 0.928176
vt 0.563980 0.928176
vt 0.563980 0.928176
vt 0.563980 0.928176
vt 0.563980 0.928176
vt 0.563980 0.928176
vt 0.563980 0.928176
vt 0.563980 0.928176
vt 0.563980 0.928176
vt 0.563980 0.928176
vt 0.563981 0.928176
vt 0.563980 0.928176
vt 0.563980 0.928176
vt 0.563980 0.928176
vt 0.563980 0.928176
vt 0.563980 0.928176
vt 0.563980 0.928176
vt 0.563980 0.928176
vt 0.563980 0.928176
vt 0.563980 0.928176
vt 0.563980 0.928176
vt 0.563980 0.928176
vt 0.563980 0.928176
vt 0.563980 0.928176
vt 0.563980 0.928176
vt 0.563980 0.928176
vt 0.563980 0.928176
vt 0.563980 0.928176
vt 0.563980 0.928176
vt 0.563980 0.928176
vt 0.563980 0.928176
vt 0.563980 0.928176
vt 0.563980 0.928176
vt 0.563980 0.928176
vt 0.563980 0.928176
vt 0.563980 0.928176
vt 0.563980 0.928176
vt 0.563980 0.928176
vt 0.563980 0.928176
vt 0.563980 0.928176
vt 0.563980 0.928176
vt 0.563980 0.928176
vt 0.563980 0.928176
vt 0.563980 0.928176
vt 0.563980 0.928176
vt 0.563980 0.928176
vt 0.563980 0.928176
vt 0.563980 0.928176
vt 0.563980 0.928176
vt 0.563980 0.928176
vt 0.563980 0.928176
vt 0.563980 0.928176
vn 0.3609 0.9058 0.2218
vn 0.2668 -0.6235 -0.7349
vn 0.8952 0.4012 0.1940
vn 0.1364 0.9855 0.1007
vn 0.1237 0.9377 0.3246
vn 0.6667 0.4103 -0.6222
vn -0.3932 0.6952 0.6018
vn 0.0536 0.9555 0.2901
vn 0.4699 -0.5500 0.6905
vn 0.5791 -0.0717 0.8121
vn 0.4575 0.3339 0.8241
vn -0.4055 0.7382 0.5392
vn -0.1750 0.4989 0.8488
vn 0.3074 0.0147 0.9515
vn 0.5949 0.5734 -0.5633
vn 0.0635 -0.8698 0.4893
vn -0.3848 0.6417 0.6634
vn -0.1657 -0.1549 0.9739
vn -0.2546 0.7339 0.6298
vn -0.1968 0.8653 0.4611
vn -0.2788 -0.7642 0.5816
vn -0.5338 -0.0512 0.8441
vn -0.5135 0.1380 0.8469
vn 0.4027 0.3595 0.8418
vn 0.6799 0.5215 0.5156
vn -0.5479 0.5007 0.6702
vn -0.6418 -0.4579 0.6152
vn -0.7727 0.3897 0.5010
vn -0.6133 -0.7889 0.0400
vn -0.6026 -0.7782 -0.1767
vn -0.8167 -0.4992 -0.2893
vn -0.8279 -0.4223 -0.3691
vn -0.8088 -0.4595 -0.3670
vn -0.8464 -0.1330 -0.5157
vn -0.7016 0.4477 -0.5544
vn -0.8805 0.0545 -0.4709
vn 0.2091 0.9536 0.2167
vn 0.3461 -0.9220 0.1737
vn 0.1562 -0.9349 -0.3187
vn -0.2415 -0.9460 -0.2164
vn 0.1524 -0.9340 -0.3233
vn -0.1402 -0.9807 -0.1362
vn -0.0145 -0.9990 -0.0431
vn 0.0389 -0.9983 -0.0431
vn -0.0427 -0.9986 0.0314
vn 0.0392 -0.9970 -0.0670
vn 0.1233 -0.9916 0.0385
vn -0.0359 -0.9984 -0.0428
vn -0.2774 -0.9524 -0.1266
vn 0.6416 0.4595 -0.6142
vn 0.5610 -0.7399 -0.3712
vn 0.6388 0.4015 -0.6564
vn 0.9122 0.3012 -0.2777
vn 0.4174 -0.9072 -0.0527
vn 0.3696 0.3016 -0.8789
vn 0.9546 -0.2977 0.0090
vn 0.5483 -0.8362 -0.0109
vn 0.0449 0.9358 0.3496
vn 0.8756 -0.3776 0.3012
vn 0.2596 0.8731 -0.4127
vn 0.9245 0.0415 0.3788
vn 0.3076 -0.9459 0.1034
vn -0.6823 0.0292 -0.7305
vn -0.6037 0.1751 -0.7778
vn -0.5167 -0.3360 -0.7875
vn -0.4047 0.3820 -0.8308
vn 0.2554 0.5665 -0.7835
vn -0.0526 -0.6301 -0.7747
vn 0.2032 -0.8798 -0.4297
vn 0.6114 0.4476 -0.6526
vn 0.1760 -0.9259 -0.3343
vn 0.2087 0.9627 0.1721
vn 0.5942 0.5068 -0.6246
vn 0.3188 0.9395 -0.1256
vn 0.5895 0.5093 -0.6270
vn 0.4849 0.8490 -0.2097
vn -0.7154 0.4254 -0.5542
vn 0.6979 0.2651 0.6654
vn 0.2091 0.9568 0.2017
vn 0.2474 -0.3373 0.9083
vn 0.3286 0.9141 0.2376
vn 0.0703 0.9603 0.2700
vn 0.5633 0.7211 0.4032
vn 0.0618 0.9717 0.2280
vn 0.3893 -0.7683 0.5081
vn 0.5849 -0.2988 0.7541
vn 0.3900 0.1046 0.9149
vn -0.4615 0.5438 0.7009
vn -0.1324 -0.7043 0.6975
vn -0.2434 0.0080 0.9699
vn -0.2567 0.5516 0.7936
vn -0.1663 0.9061 0.3890
vn -0.9035 -0.2936 0.3121
vn 0.6603 0.3607 0.6588
vn -0.2436 -0.8446 0.4768
vn 0.0557 -0.9649 0.2566
vn -0.9945 0.1032 -0.0190
vn -0.7693 0.4371 0.4660
vn -0.6817 0.6377 -0.3587
vn -0.7574 0.5546 0.3446
vn -0.9816 -0.1280 -0.1418
vn 0.1197 -0.9877 -0.1005
vn -0.5054 0.8430 0.1842
vn -0.8481 0.4180 -0.3256
vn -0.8445 0.5133 -0.1528
vn -0.7038 0.4878 -0.5165
vn -0.3880 -0.8405 0.3781
vn -0.8218 0.1085 -0.5594
vn 0.0842 -0.9904 0.1092
vn -0.1194 -0.9705 0.2093
vn -0.1564 -0.9163 0.3688
vn -0.0089 -0.9946 0.1034
vn 0.1635 -0.9189 0.3590
vn -0.2323 -0.9576 0.1703
vn 0.3402 -0.9298 0.1406
vn -0.3046 -0.9511 0.0516
vn 0.1781 -0.9839 -0.0145
vn -0.4127 -0.7193 -0.5588
vn 0.4098 -0.9042 -0.1203
vn -0.1152 -0.9404 -0.3200
vn -0.0374 -0.9987 -0.0339
vn -0.0358 -0.9987 -0.0372
vn -0.2231 -0.9643 -0.1429
vn -0.0463 -0.9988 0.0137
vn 0.0371 -0.9993 -0.0043
vn -0.2505 -0.9630 0.0992
vn 0.8019 0.4194 0.4254
vn 0.8390 0.1708 -0.5167
vn 0.9539 -0.3001 0.0086
vn 0.9833 -0.1818 -0.0075
vn 0.9508 0.0934 0.2955
vn 0.1095 0.9414 0.3192
vn 0.8868 -0.2817 0.3663
vn 0.2333 0.9363 0.2626
vn 0.3923 -0.8986 0.1964
vn -0.0505 -0.8228 -0.5660
vn -0.3998 0.1756 -0.8996
vn -0.4199 -0.2715 -0.8660
vn -0.4656 0.2516 -0.8484
vn 0.6423 0.4589 -0.6139
vn -0.8683 0.1117 0.4834
vn 0.1397 0.9405 0.3098
vn 0.0598 0.9375 0.3428
vn 0.4154 0.6870 0.5962
vn 0.1449 0.9170 0.3717
vn 0.2034 0.9453 0.2549
vn 0.3201 0.6592 0.6804
vn -0.8894 -0.4385 -0.1294
vn 0.6002 0.6953 0.3955
vn 0.7497 0.5122 0.4189
vn 0.1544 0.9537 0.2581
vn 0.2322 0.8580 0.4582
vn 0.2678 0.9246 0.2709
vn 0.3797 0.8496 0.3662
vn 0.1740 0.9527 0.2490
vn 0.2266 0.9493 0.2181
vn 0.0810 0.9480 0.3079
vn 0.3254 0.9318 -0.1607
vn 0.2141 0.9380 0.2728
vn 0.1985 0.9430 0.2671
vn 0.1945 0.9258 0.3241
vn 0.1598 0.9520 0.2612
vn 0.2376 0.9287 0.2847
vn -0.7128 -0.6437 0.2784
vn 0.4998 0.7781 -0.3805
vn 0.3728 0.9256 0.0655
vn 0.6350 -0.4105 -0.6544
vn 0.6290 0.6824 -0.3725
vn 0.2781 0.9596 0.0418
vn 0.2116 0.9590 0.1885
vn 0.6799 0.1500 -0.7178
vn 0.1532 0.9867 0.0536
vn 0.2728 0.9597 0.0679
vn -0.5139 0.6966 0.5007
vn 0.1658 0.9584 0.2325
vn -0.5334 0.7798 0.3279
vn -0.3819 0.6892 0.6157
vn -0.3371 0.6342 0.6958
vn -0.6750 0.7363 0.0468
vn -0.2995 0.8019 0.5169
vn 0.0661 0.9662 0.2490
vn 0.3399 0.7909 0.5089
vn -0.2983 0.7889 0.5373
vn -0.2848 0.8152 0.5044
vn 0.0000 0.0000 1.0000
vn 0.2909 0.8483 0.4423
vn 0.4541 0.7598 0.4652
vn 0.5163 0.3852 0.7649
vn 0.3505 0.7582 0.5498
vn -0.3768 -0.8221 -0.4268
vn 0.1350 0.2884 0.9479
vn 0.2173 0.9660 0.1398
g Stone_Cube_Material
usemtl Material
s off
f 133/1/1 128/2/1 138/3/1
f 124/4/2 127/5/2 134/6/2 136/7/2
f 159/8/3 28/9/3 164/10/3
f 141/11/4 87/12/4 136/7/4 137/13/4
f 88/14/5 142/15/5 138/3/5 82/16/5
f 72/17/6 129/18/6 134/6/6
f 169/19/7 172/20/7 152/21/7 151/22/7 34/23/7
f 35/24/7 173/25/7 177/26/7 38/27/7
f 132/28/8 131/29/8 79/30/8 154/31/8 158/32/8
f 11/33/9 23/34/9 21/35/9
f 10/36/10 22/37/10 23/34/10
f 22/37/11 91/38/11 95/39/11 24/40/11
f 94/41/12 93/42/12 160/43/12 163/44/12
f 163/44/13 168/45/13 25/46/13 24/40/13 95/39/13 94/41/13
f 23/34/14 24/40/14 25/46/14
f 18/47/15 134/6/15 127/5/15 126/48/15
f 21/35/16 27/49/16 26/50/16
f 167/51/17 166/52/17 33/53/17 30/54/17
f 27/49/18 25/46/18 29/55/18
f 20/56/19 171/57/19 170/58/19 80/59/19
f 169/19/7 34/23/7 181/60/7
f 28/9/7 31/61/7 165/62/7 164/10/7
f 80/59/20 170/58/20 180/63/20
f 26/50/21 29/55/21 32/64/21
f 29/55/22 8/65/22 32/64/22
f 29/55/23 30/54/23 8/65/23
f 90/66/24 91/38/24 22/37/24
f 64/67/25 96/68/25 83/69/25
f 20/56/26 153/70/26 152/21/26 172/20/26 171/57/26
f 8/65/27 1/71/27 32/64/27
f 34/23/7 38/27/7 9/72/7
f 9/72/28 37/73/28 8/65/28
f 151/22/7 150/74/7 35/24/7 34/23/7
f 36/75/29 53/76/29 1/71/29
f 53/76/30 36/75/30 46/77/30
f 182/78/7 181/60/7 34/23/7 31/61/7
f 36/75/31 40/79/31 46/77/31
f 40/79/32 65/80/32 46/77/32
f 46/77/33 65/80/33 5/81/33
f 39/82/34 43/83/34 40/79/34
f 42/84/35 43/83/35 39/82/35
f 13/85/35 66/86/35 43/83/35
f 43/83/36 65/80/36 40/79/36
f 34/23/7 9/72/7 31/61/7
f 138/3/37 157/87/37 156/88/37 82/16/37
f 47/89/38 49/90/38 48/91/38
f 51/92/39 54/93/39 50/94/39
f 52/95/40 56/96/40 51/92/40
f 51/92/41 55/97/41 54/93/41
f 52/95/42 16/98/42 56/96/42
f 54/93/43 2/99/43 53/76/43
f 55/97/44 2/99/44 54/93/44
f 3/100/45 44/101/45 4/102/45
f 17/103/46 44/101/46 3/100/46
f 17/103/47 52/95/47 44/101/47
f 14/104/48 26/50/48 55/97/48
f 5/81/49 47/89/49 46/77/49
f 57/105/50 58/106/50 76/107/50
f 58/106/51 17/103/51 76/107/51
f 7/108/52 59/109/52 57/105/52
f 59/109/53 60/110/53 58/106/53
f 6/111/52 100/112/52 99/113/52 7/108/52
f 58/106/54 16/98/54 17/103/54
f 12/114/55 130/115/55 129/18/55 72/17/55
f 63/116/56 62/117/56 60/110/56
f 58/106/57 62/117/57 16/98/57
f 98/118/52 97/119/52 61/120/52 59/109/52
f 144/121/58 146/122/58 104/123/58
f 62/117/59 63/116/59 11/33/59
f 114/124/60 110/125/60 109/126/60 116/127/60
f 63/116/61 64/67/61 10/36/61
f 16/98/62 62/117/62 14/104/62
f 66/86/63 68/128/63 65/80/63
f 67/129/64 68/128/64 66/86/64
f 68/128/65 69/130/65 65/80/65
f 12/114/66 71/131/66 67/129/66
f 12/114/67 72/17/67 71/131/67
f 72/17/52 73/132/52 71/131/52
f 70/133/68 74/134/68 69/130/68
f 73/132/52 75/135/52 71/131/52
f 71/131/52 75/135/52 70/133/52
f 74/134/69 76/107/69 3/100/69
f 78/136/52 77/137/52 75/135/52
f 77/137/70 76/107/70 74/134/70
f 78/136/52 18/47/52 6/111/52
f 3/100/71 76/107/71 17/103/71
f 133/1/72 138/3/72 135/138/72
f 18/47/73 15/139/73 134/6/73
f 124/4/74 136/7/74 87/12/74 140/140/74
f 15/139/75 72/17/75 134/6/75
f 121/141/76 120/142/76 122/143/76 123/144/76 86/145/76 139/146/76 140/140/76 87/12/76 141/11/76 142/15/76 88/14/76
f 12/114/77 79/30/77 131/29/77 130/115/77
f 64/67/78 90/66/78 22/37/78
f 156/88/79 155/147/79 81/148/79 82/16/79
f 25/46/80 27/49/80 21/35/80 23/34/80
f 128/2/81 132/28/81 158/32/81 157/87/81 138/3/81
f 154/31/82 79/30/82 179/149/82
f 143/150/83 145/151/83 96/68/83 97/119/83 98/118/83 99/113/83 100/112/83
f 155/147/84 178/152/84 81/148/84
f 14/104/85 11/33/85 21/35/85
f 11/33/86 10/36/86 23/34/86
f 23/34/87 22/37/87 24/40/87
f 7/108/52 99/113/52 98/118/52 59/109/52
f 8/65/88 30/54/88 33/53/88 9/72/88
f 31/61/7 33/53/7 166/52/7 165/62/7
f 101/153/79 103/154/79 162/155/79 161/156/79 84/157/79 118/158/79 117/159/79
f 26/50/89 27/49/89 29/55/89
f 29/55/90 25/46/90 30/54/90
f 25/46/91 168/45/91 167/51/91 30/54/91
f 149/160/92 19/161/92 174/162/92
f 36/75/93 1/71/93 8/65/93 37/73/93
f 10/36/94 64/67/94 22/37/94
f 33/53/7 31/61/7 9/72/7
f 2/99/95 26/50/95 32/64/95
f 14/104/96 21/35/96 26/50/96
f 34/23/7 35/24/7 38/27/7
f 40/79/97 37/73/97 38/27/97 39/82/97
f 9/72/98 38/27/98 37/73/98
f 176/163/99 175/164/99 42/84/99 41/165/99
f 20/56/100 19/161/100 149/160/100 153/70/100
f 37/73/101 40/79/101 36/75/101
f 54/93/102 53/76/102 46/77/102 48/91/102
f 38/27/103 41/165/103 39/82/103
f 175/164/104 174/162/104 19/161/104 42/84/104
f 177/26/105 176/163/105 41/165/105 38/27/105
f 41/165/106 42/84/106 39/82/106
f 42/84/35 13/85/35 43/83/35
f 19/161/35 12/114/35 42/84/35
f 13/85/35 42/84/35 12/114/35
f 32/64/107 1/71/107 2/99/107
f 43/83/108 66/86/108 65/80/108
f 47/89/109 4/102/109 45/166/109
f 4/102/110 44/101/110 45/166/110
f 45/166/111 44/101/111 49/90/111
f 46/77/112 47/89/112 48/91/112
f 47/89/113 45/166/113 49/90/113
f 49/90/114 44/101/114 51/92/114
f 48/91/115 49/90/115 50/94/115
f 51/92/116 44/101/116 52/95/116
f 50/94/117 49/90/117 51/92/117
f 4/102/118 5/81/118 65/80/118 69/130/118
f 48/91/119 50/94/119 54/93/119
f 51/92/120 56/96/120 55/97/120
f 56/96/121 16/98/121 14/104/121
f 55/97/122 56/96/122 14/104/122
f 5/81/123 4/102/123 47/89/123
f 17/103/124 16/98/124 52/95/124
f 55/97/125 26/50/125 2/99/125
f 53/76/126 2/99/126 1/71/126
f 6/111/52 125/167/52 139/146/52 86/145/52
f 57/105/52 59/109/52 58/106/52
f 61/120/127 97/119/127 96/68/127 64/67/127
f 59/109/128 61/120/128 60/110/128
f 60/110/129 62/117/129 58/106/129
f 60/110/130 61/120/130 63/116/130
f 63/116/131 61/120/131 64/67/131
f 119/168/132 102/169/132 107/170/132
f 11/33/133 63/116/133 10/36/133
f 115/171/134 114/124/134 116/127/134 118/158/134 84/157/134 85/172/134
f 108/173/79 101/153/79 117/159/79
f 14/104/135 62/117/135 11/33/135
f 3/100/136 4/102/136 69/130/136 74/134/136
f 67/129/137 71/131/137 68/128/137
f 68/128/138 70/133/138 69/130/138
f 68/128/139 71/131/139 70/133/139
f 6/111/52 7/108/52 77/137/52 78/136/52
f 72/17/52 15/139/52 73/132/52
f 70/133/52 75/135/52 74/134/52
f 73/132/52 78/136/52 75/135/52
f 73/132/52 15/139/52 18/47/52
f 75/135/52 77/137/52 74/134/52
f 78/136/52 73/132/52 18/47/52
f 77/137/140 57/105/140 76/107/140
f 13/85/35 67/129/35 66/86/35
f 13/85/35 12/114/35 67/129/35
f 77/137/52 7/108/52 57/105/52
f 105/174/141 122/143/141 120/142/141 109/126/141
f 89/175/142 113/176/142 115/171/142 85/172/142 92/177/142
f 104/123/143 146/122/143 148/178/143 122/143/143 105/174/143
f 91/38/144 92/177/144 93/42/144 94/41/144 95/39/144
f 145/151/145 144/121/145 104/123/145 106/179/145 83/69/145 96/68/145
f 111/180/146 113/176/146 89/175/146
f 89/175/147 92/177/147 91/38/147 90/66/147
f 6/111/52 86/145/52 123/144/52 147/181/52 143/150/52 100/112/52
f 83/69/148 106/179/148 105/174/148 109/126/148 110/125/148 112/182/148
f 112/182/149 111/180/149 89/175/149 90/66/149 83/69/149
f 64/67/150 83/69/150 90/66/150
f 101/153/151 102/169/151 103/154/151
f 104/123/152 105/174/152 106/179/152
f 107/170/153 108/173/153 109/126/153
f 110/125/154 111/180/154 112/182/154
f 113/176/155 114/124/155 115/171/155
f 116/127/156 117/159/156 118/158/156
f 119/168/157 120/142/157 121/141/157
f 122/143/158 148/178/158 147/181/158 123/144/158
f 119/168/159 107/170/159 109/126/159 120/142/159
f 113/176/160 111/180/160 110/125/160 114/124/160
f 108/173/161 117/159/161 116/127/161 109/126/161
f 101/153/162 108/173/162 107/170/162 102/169/162
f 85/172/163 84/157/163 161/156/163 160/43/163 93/42/163 92/177/163
f 124/4/164 125/167/164 126/48/164 127/5/164
f 128/2/165 129/18/165 130/115/165 131/29/165 132/28/165
f 143/150/166 144/121/166 145/151/166
f 146/122/167 147/181/167 148/178/167
f 134/6/168 129/18/168 128/2/168 133/1/168
f 136/7/169 134/6/169 133/1/169 135/138/169
f 135/138/170 138/3/170 137/13/170 136/7/170
f 124/4/171 140/140/171 139/146/171 125/167/171
f 138/3/172 142/15/172 141/11/172 137/13/172
f 143/150/173 147/181/173 146/122/173 144/121/173
f 6/111/52 18/47/52 126/48/52 125/167/52
f 149/160/174 150/74/174 151/22/174 152/21/174 153/70/174
f 154/31/175 155/147/175 156/88/175 157/87/175 158/32/175
f 159/8/176 160/43/176 161/156/176 162/155/176
f 163/44/177 164/10/177 165/62/177 166/52/177 167/51/177 168/45/177
f 169/19/178 170/58/178 171/57/178 172/20/178
f 173/25/179 174/162/179 175/164/179 176/163/179 177/26/179
f 180/63/180 181/60/180 182/78/180
f 154/31/181 179/149/181 178/152/181 155/147/181
f 163/44/182 160/43/182 159/8/182 164/10/182
f 180/63/183 170/58/183 169/19/183 181/60/183
f 173/25/184 150/74/184 149/160/184 174/162/184
f 150/74/7 173/25/7 35/24/7
f 80/59/185 180/63/185 184/183/185 183/184/185
f 183/184/186 184/183/186 186/185/186 185/186/186
f 82/16/187 81/148/187 187/187/187 188/188/187
f 180/63/188 182/78/188 190/189/188 189/190/188
f 28/9/189 164/10/189 192/191/189 191/192/189
f 186/185/185 184/183/185 193/193/185 194/194/185
f 28/9/190 159/8/190 196/195/190 195/196/190
f 194/194/191 193/193/191 197/197/191 198/198/191
f 114/124/192 110/125/192 199/199/192 200/200/192
